<svg preserveAspectRatio="none" overflow="visible" style="display: block;" width="48" height="48" viewBox="0 0 48 48" fill="none" xmlns="http://www.w3.org/2000/svg">
<g id="stat-icon-wrap">
<rect width="48" height="48" rx="12" fill="white" fill-opacity="0.101961"/>
<path id="Vector" d="M28.0003 33V31C28.0003 29.9391 27.5789 28.9217 26.8287 28.1716C26.0784 27.4214 25.061 27 24 27H17.9995C16.9386 27 15.9211 27.4214 15.1709 28.1716C14.4207 28.9217 13.9992 29.9391 13.9992 31V33M28.0003 15.1279C28.8581 15.3503 29.6178 15.8512 30.1602 16.552C30.7025 17.2528 30.9968 18.1138 30.9968 18.9999C30.9968 19.886 30.7025 20.7471 30.1602 21.4479C29.6178 22.1487 28.8581 22.6496 28.0003 22.8719M34.0008 32.9999V30.9999C34.0001 30.1136 33.7051 29.2527 33.1621 28.5522C32.6191 27.8517 31.8588 27.3515 31.0006 27.1299M25.0001 19C25.0001 21.2091 23.2091 23 20.9998 23C18.7904 23 16.9994 21.2091 16.9994 19C16.9994 16.7909 18.7904 15 20.9998 15C23.2091 15 25.0001 16.7909 25.0001 19Z" stroke="#FF8C00" stroke-width="2" stroke-linecap="round"/>
</g>
</svg>
